<svg xmlns="http://www.w3.org/2000/svg" xmlns:xlink="http://www.w3.org/1999/xlink" width="16px" height="16px" viewBox="0 0 16 16" version="1.1">
<g id="surface1">
<path style=" stroke:none;fill-rule:nonzero;fill:#ff4545;fill-opacity:1;" d="M 7.332031 12.949219 L 7.332031 8.382812 L 3.332031 6.066406 L 3.332031 10.632812 Z M 8.667969 12.949219 L 12.667969 10.632812 L 12.667969 6.066406 L 8.667969 8.382812 Z M 8 7.234375 L 11.949219 4.949219 L 8 2.667969 L 4.050781 4.949219 Z M 2.667969 11.800781 C 2.457031 11.679688 2.292969 11.515625 2.175781 11.316406 C 2.058594 11.117188 2 10.894531 2 10.648438 L 2 5.351562 C 2 5.105469 2.058594 4.882812 2.175781 4.683594 C 2.292969 4.484375 2.457031 4.320312 2.667969 4.199219 L 7.332031 1.515625 C 7.542969 1.394531 7.765625 1.332031 8 1.332031 C 8.234375 1.332031 8.457031 1.394531 8.667969 1.515625 L 13.332031 4.199219 C 13.542969 4.320312 13.707031 4.484375 13.824219 4.683594 C 13.941406 4.882812 14 5.105469 14 5.351562 L 14 10.648438 C 14 10.894531 13.941406 11.117188 13.824219 11.316406 C 13.707031 11.515625 13.542969 11.679688 13.332031 11.800781 L 8.667969 14.484375 C 8.457031 14.605469 8.234375 14.667969 8 14.667969 C 7.765625 14.667969 7.542969 14.605469 7.332031 14.484375 Z M 8 8 Z M 8 8 "/>
</g>
</svg>